<?xml version="1.0" encoding="utf-8"?>
<!-- Generator: Adobe Illustrator 27.8.1, SVG Export Plug-In . SVG Version: 6.00 Build 0)  -->
<svg version="1.1" id="レイヤー_1" xmlns="http://www.w3.org/2000/svg" xmlns:xlink="http://www.w3.org/1999/xlink" x="0px"
	 y="0px" viewBox="0 0 41.1 35" style="enable-background:new 0 0 41.1 35;" xml:space="preserve">
<g>
	<path d="M24.8,0c5.6,0,16.4,3.7,16.4,10.8c0,2-2.1,4.2-5.4,4.2c-3.4,0-6-1.4-6-4.2c0-2.5,2-2.9,2-4.8c0-3.3-7.1-3.6-9.9-3.6
		C17.5,2.4,9.4,2.5,9.4,6c0,2,2,2.3,2,4.8c0,2.8-2.7,4.2-6,4.2C2.1,15,0,12.8,0,10.8C0,3.7,10.8,0,16.4,0H24.8z M7.8,35
		c-2.5,0-4.7-2-4.7-4.7c0-1,0.3-1.9,0.8-2.6L16.6,8c0.9-1.3,2.3-2.2,4-2.2s3.1,0.9,4,2.2l12.8,19.7c0.5,0.8,0.8,1.7,0.8,2.6
		c0,2.7-2.3,4.7-4.7,4.7H7.8z M20.6,17.5c-3.9,0-6.9,3.1-6.9,6.9s3.1,6.9,6.9,6.9c3.8,0,6.9-3.1,6.9-6.9S24.4,17.5,20.6,17.5z"/>
</g>
</svg>
