<?xml version="1.0" encoding="utf-8"?>
<!-- Generator: Adobe Illustrator 26.5.3, SVG Export Plug-In . SVG Version: 6.00 Build 0)  -->
<svg version="1.1" id="レイヤー_1" xmlns="http://www.w3.org/2000/svg" xmlns:xlink="http://www.w3.org/1999/xlink" x="0px"
	 y="0px" viewBox="0 0 60 60" style="enable-background:new 0 0 60 60;" xml:space="preserve">
<style type="text/css">
	.st0{fill:#FFFFFF;}
</style>
<g>
	<g>
		<path class="st0" d="M42.24,1.04H17.76c-9.23,0-16.72,7.48-16.72,16.72v24.48c0,9.23,7.48,16.72,16.72,16.72h24.48
			c9.23,0,16.72-7.48,16.72-16.72V17.76C58.96,8.53,51.48,1.04,42.24,1.04 M53.63,42.67c0,6.13-4.97,11.1-11.1,11.1H17.47
			c-6.13,0-11.1-4.97-11.1-11.1V17.62c0-6.13,4.97-11.1,11.1-11.1h25.06c6.13,0,11.1,4.97,11.1,11.1V42.67z"/>
		<path class="st0" d="M30,15.12c-8.3,0-15.03,6.73-15.03,15.03c0,8.3,6.73,15.03,15.03,15.03c8.3,0,15.03-6.73,15.03-15.03
			C45.03,21.84,38.3,15.12,30,15.12 M30,39.88c-5.38,0-9.74-4.36-9.74-9.74S24.62,20.4,30,20.4s9.74,4.36,9.74,9.74
			S35.38,39.88,30,39.88"/>
		<path class="st0" d="M45.53,11.04c-1.93,0-3.5,1.57-3.5,3.5c0,1.93,1.57,3.5,3.5,3.5c1.93,0,3.5-1.57,3.5-3.5
			C49.03,12.61,47.46,11.04,45.53,11.04"/>
	</g>
</g>
</svg>
