<?xml version="1.0" encoding="utf-8"?>
<!-- Generator: Adobe Illustrator 26.5.3, SVG Export Plug-In . SVG Version: 6.00 Build 0)  -->
<svg version="1.1" id="レイヤー_1" xmlns="http://www.w3.org/2000/svg" xmlns:xlink="http://www.w3.org/1999/xlink" x="0px"
	 y="0px" viewBox="0 0 88 62.31" style="enable-background:new 0 0 88 62.31;" xml:space="preserve">
<style type="text/css">
	.st0{fill:#FFFFFF;}
</style>
<g>
	<path class="st0" d="M7.11,9.83c0.11,0.09,0.22,0.18,0.33,0.27l32.5,25.88c2.26,1.8,5.41,1.8,7.66-0.01L80.29,9.84
		c2.16-1.74,3.39-4.39,3.38-7.25l-0.01-2.52l1.27-0.01H3.4l0.1,2.17C3.62,5.21,4.94,7.98,7.11,9.83z"/>
	<path class="st0" d="M86.2,0.06l0.01,2.52c0.02,3.64-1.56,7.02-4.33,9.25L49.2,37.97c-1.6,1.28-3.51,1.92-5.43,1.92
		c-1.91,0-3.82-0.63-5.42-1.91L5.85,12.1c-0.14-0.11-0.27-0.22-0.4-0.33c-2.7-2.31-4.34-5.75-4.5-9.43l-0.1-2.23l1.27-0.06H0v62.25
		h88V0.06H86.2z"/>
	<polygon class="st0" points="3.4,0 2.12,0.06 3.4,0.06 	"/>
	<polygon class="st0" points="86.2,0.05 84.92,0.06 86.2,0.06 	"/>
</g>
</svg>
